<?xml version="1.0" encoding="UTF-8"?>
<svg xmlns="http://www.w3.org/2000/svg" xmlns:xlink="http://www.w3.org/1999/xlink" viewBox="0 0 48 48" width="48px" height="48px">
<g id="surface200157112">
<path style=" stroke:none;fill-rule:nonzero;fill:rgb(100%,41.960785%,70.19608%);fill-opacity:1;" d="M 24 45.839844 C 11.9375 45.839844 2.160156 36.0625 2.160156 24 C 2.160156 11.9375 11.9375 2.160156 24 2.160156 C 36.0625 2.160156 45.839844 11.9375 45.839844 24 C 45.839844 36.0625 36.0625 45.839844 24 45.839844 Z M 24 45.839844 "/>
<path style=" stroke:none;fill-rule:nonzero;fill:rgb(100%,100%,100%);fill-opacity:1;" d="M 24 8.398438 C 15.382812 8.398438 8.398438 15.382812 8.398438 24 C 8.398438 32.617188 15.382812 39.601562 24 39.601562 C 32.617188 39.601562 39.601562 32.617188 39.601562 24 C 39.601562 15.382812 32.617188 8.398438 24 8.398438 Z M 34.492188 16.003906 C 36.136719 18.15625 37.132812 20.824219 37.191406 23.722656 C 34.503906 23.210938 31.394531 22.964844 28.097656 23.628906 C 27.703125 22.714844 27.292969 21.804688 26.847656 20.902344 C 30.726562 19.277344 33.199219 17.265625 34.492188 16.003906 Z M 32.859375 14.222656 C 31.738281 15.308594 29.429688 17.195312 25.714844 18.722656 C 24.292969 16.101562 22.671875 13.5625 20.878906 11.175781 C 21.878906 10.933594 22.925781 10.800781 24 10.800781 C 27.40625 10.800781 30.515625 12.097656 32.859375 14.222656 Z M 18.496094 12.007812 C 20.328125 14.378906 21.984375 16.921875 23.433594 19.546875 C 20.195312 20.566406 16.128906 21.25 11.132812 21.074219 C 12.046875 17.039062 14.816406 13.703125 18.496094 12.007812 Z M 10.800781 24 C 10.800781 23.820312 10.804688 23.640625 10.8125 23.460938 C 11.480469 23.488281 12.136719 23.507812 12.777344 23.507812 C 17.523438 23.507812 21.425781 22.777344 24.585938 21.738281 C 25 22.574219 25.390625 23.414062 25.757812 24.253906 C 22 25.515625 18.070312 28.101562 14.296875 32.9375 C 12.128906 30.585938 10.800781 27.445312 10.800781 24 Z M 16.082031 34.554688 C 19.597656 30 23.199219 27.597656 26.675781 26.46875 C 27.933594 29.714844 28.832031 32.96875 29.304688 36.082031 C 27.679688 36.800781 25.886719 37.199219 24 37.199219 C 21.03125 37.199219 18.289062 36.214844 16.082031 34.554688 Z M 31.539062 34.828125 C 31.027344 31.910156 30.167969 28.894531 29.019531 25.886719 C 31.855469 25.394531 34.566406 25.640625 37.027344 26.132812 C 36.441406 29.722656 34.402344 32.824219 31.539062 34.828125 Z M 31.539062 34.828125 "/>
</g>
</svg>
