<?xml version="1.0" encoding="UTF-8"?>
<svg xmlns="http://www.w3.org/2000/svg" xmlns:xlink="http://www.w3.org/1999/xlink" viewBox="0 0 24 24" width="24px" height="24px">
<g id="surface206053515">
<path style="fill-rule:nonzero;fill:rgb(0%,0%,0%);fill-opacity:1;stroke-width:10;stroke-linecap:butt;stroke-linejoin:round;stroke:rgb(80.000001%,80.000001%,80.000001%);stroke-opacity:1;stroke-miterlimit:10;" d="M 71.675703 14.319069 L 71.675703 86.000003 L 93.162152 71.675703 L 114.67832 86.000003 L 114.67832 14.319069 L 143.326919 14.319069 L 143.326919 129.002619 L 50.159536 129.002619 C 46.117825 129.002619 42.997386 132.123058 42.997386 136.164769 C 42.997386 140.20648 46.117825 143.326919 50.159536 143.326919 L 143.326919 143.326919 L 143.326919 157.680936 L 50.159536 157.680936 C 38.391024 157.680936 28.673087 147.962999 28.673087 136.164769 L 28.673087 28.673087 C 28.673087 20.738257 35.092275 14.319069 42.997386 14.319069 Z M 71.675703 14.319069 " transform="matrix(0.131442,0,0,0.131442,0.696,0.696)"/>
<path style=" stroke:none;fill-rule:nonzero;fill:rgb(100%,100%,100%);fill-opacity:1;" d="M 6.347656 2.578125 C 5.308594 2.578125 4.464844 3.421875 4.464844 4.464844 L 4.464844 18.59375 C 4.464844 20.144531 5.742188 21.421875 7.289062 21.421875 L 19.535156 21.421875 L 19.535156 19.535156 L 7.289062 19.535156 C 6.757812 19.535156 6.347656 19.125 6.347656 18.59375 C 6.347656 18.0625 6.757812 17.652344 7.289062 17.652344 L 19.535156 17.652344 L 19.535156 2.578125 L 15.769531 2.578125 L 15.769531 12 L 12.941406 10.117188 L 10.117188 12 L 10.117188 2.578125 Z M 6.347656 2.578125 "/>
</g>
</svg>
